# xmcd CD database file
#
# Track frame offsets:
#	150
#	17497
#	33287
#	48436
#	62847
#	78123
#	93020
#	109090
#	122327
#	140585
#	157697
#	171426
#	185641
#	197412
#	211009
#	230532
#	248716
#	257903
#	269992
#
# Disc length: 3779 seconds
#
# Revision: 0
# Processed by: cddbd v1.5.2PL0 Copyright (c) Steve Scherf et al.
# Submitted via: CDex 2.10
#
DISCID=f90ec113
DTITLE=Various Artist - Hott Counrty 24
DYEAR=1999
DGENRE=Country
TTITLE0=Bryan White - One Small Miracle
TTITLE1=Reba McEntire - What If
TTITLE2=Travis Tritt - Still In Love With You
TTITLE3=Wynonna - Come Some Rainy Day
TTITLE4=Collin Raye - Little Red Rodeo
TTITLE5=Mark Chestnutt - It`s Not Over
TTITLE6=Kinleys - Just Between You And Me
TTITLE7=Trisha Yearwood - Perfect Love
TTITLE8=Mila Mason - Closer To Heaven
TTITLE9=Jim Collins - The Next Step
TTITLE10=Clay Walker - Then What
TTITLE11=David Lee Murphy - Just Don`t Wait Around `Til She`s Leavin`
TTITLE12=Chris Cummings - The Kind Of Heart That Breaks
TTITLE13=Geroge Strait - Round About Way
TTITLE14=Julian Austin - Two Out Of Three Ain`t Bad
TTITLE15=Scooter Lee - Ribbon Of Highway
TTITLE16=Sara Evans - Shame About That
TTITLE17=River Road - Sombody Will 
TTITLE18=Jason Sellers - That Does It
EXTD=YEAR: 1999
EXTT0=
EXTT1=
EXTT2=
EXTT3=
EXTT4=
EXTT5=
EXTT6=
EXTT7=
EXTT8=
EXTT9=
EXTT10=
EXTT11=
EXTT12=
EXTT13=
EXTT14=
EXTT15=
EXTT16=
EXTT17=
EXTT18=
PLAYORDER=
